<?xml version="1.0" encoding="UTF-8" standalone="no"?>
<!DOCTYPE svg PUBLIC "-//W3C//DTD SVG 1.1//EN" "http://www.w3.org/Graphics/SVG/1.1/DTD/svg11.dtd">
<svg width="456" height="456" xmlns="http://www.w3.org/2000/svg">
    <defs>
        <linearGradient id="PSgrad_0" x1="0%" x2="0%" y1="100%" y2="0%">
            <stop offset="58%" stop-color="rgb(68,60,97)" />
            <stop offset="58%" stop-color="rgb(187,139,103)" />
        </linearGradient>
    </defs>
    <g>
        <title>Layer 1</title>
        <g stroke="null" id="svg_14">
            <path stroke="null" fill-rule="evenodd" fill="rgb(254, 205, 169)" d="m155.84077,260.78816l152.39896,0c5.99766,0 10.85964,5.51311 10.85964,12.314l0,163.60482c0,1.49471 -1.06856,2.70637 -2.38673,2.70637l-166.71937,0c-2.76811,0 -5.01214,-2.54456 -5.01214,-5.68339l0,-160.62781c0,-6.80089 4.86198,-12.314 10.85964,-12.314z" id="svg_1" />
            <path stroke="rgb(199, 164, 137)" fill-rule="evenodd" stroke-width="7" stroke-linecap="round" stroke-linejoin="round" fill="rgb(255, 0, 0)" d="m303.86341,290.25766l0,-17.95204l0.17462,0l0,17.95204l-0.17462,0zm-16.4206,-17.95204l0.17462,0l0,17.95204l-0.17462,0l0,-17.95204zm-16.4212,0l0.17522,0l0,17.95204l-0.17522,0l0,-17.95204zm-16.4206,0l0.17522,0l0,17.95204l-0.17522,0l0,-17.95204zm-16.4206,0l0.17462,0l0,17.95204l-0.17462,0l0,-17.95204zm-16.4206,0l0.17462,0l0,17.95204l-0.17462,0l0,-17.95204zm-16.4206,0l0.17462,0l0,17.95204l-0.17462,0l0,-17.95204zm-16.4206,0l0.17462,0l0,17.95204l-0.17462,0l0,-17.95204zm-16.4206,0l0.17462,0l0,17.95204l-0.17462,0l0,-17.95204zm-16.4206,0l0.17462,0l0,17.95204l-0.17462,0l0,-17.95204z" id="svg_2" />
            <path stroke="rgb(255, 251, 242)" stroke-width="5" fill-rule="evenodd" stroke-linecap="round" stroke-linejoin="round" fill="rgb(255, 0, 0)" d="m303.14568,289.15006l0,-17.35389l0.17462,0l0,17.35389l-0.17462,0zm-16.4206,-17.35389l0.17462,0l0,17.35389l-0.17462,0l0,-17.35389zm-16.4206,0l0.17462,0l0,17.35389l-0.17462,0l0,-17.35389zm-16.4206,0l0.17462,0l0,17.35389l-0.17462,0l0,-17.35389zm-16.4206,0l0.17462,0l0,17.35389l-0.17462,0l0,-17.35389zm-16.4206,0l0.17462,0l0,17.35389l-0.17462,0l0,-17.35389zm-16.4206,0l0.17462,0l0,17.35389l-0.17462,0l0,-17.35389zm-16.4206,0l0.17462,0l0,17.35389l-0.17462,0l0,-17.35389zm-16.4206,0l0.17462,0l0,17.35389l-0.17462,0l0,-17.35389zm-16.4206,0l0.17462,0l0,17.35389l-0.17462,0l0,-17.35389z" id="svg_3" />
            <path stroke="null" fill-rule="evenodd" opacity="0.812" fill="rgb(199, 164, 137)" d="m168.31983,324.2458l134.70843,0c4.31002,0 7.80356,3.20001 7.80356,7.14791l0,107.89925l-149.88203,0l0,-108.29635c0,-3.72839 3.29966,-6.7508 7.37003,-6.7508z" id="svg_4" />
            <path stroke="null" fill-rule="evenodd" fill="rgb(116, 105, 162)" d="m166.90721,319.62472l133.95991,0c4.28608,0 7.7602,3.17979 7.7602,7.10274l0,112.62332l-149.0492,0l0,-113.01792c0,-3.70482 3.28132,-6.70814 7.32908,-6.70814z" id="svg_5" />
            <path stroke="null" fill-rule="evenodd" opacity="0.812" fill="url(#PSgrad_0)" d="m192.46731,310.58698l83.10911,0c1.53668,0 2.78246,0.99505 2.78246,2.22245l0,15.09327c0,1.22782 -1.24578,2.22245 -2.78246,2.22245l-83.10911,0c-1.53668,0 -2.78246,-0.99463 -2.78246,-2.22245l0,-15.09327c0,-1.2274 1.24578,-2.22245 2.78246,-2.22245z" id="svg_6" />
            <path stroke="null" fill-rule="evenodd" fill="rgb(154, 172, 223)" d="m190.14239,309.60558l83.67344,0c1.54711,0 2.80135,0.7977 2.80135,1.78166l0,13.66613c0,0.9843 -1.25424,1.78166 -2.80135,1.78166l-83.67344,0c-1.54711,0 -2.80135,-0.79736 -2.80135,-1.78166l0,-13.66613c0,-0.98396 1.25424,-1.78166 2.80135,-1.78166z" id="svg_7" />
            <path stroke="rgb(97, 116, 169)" fill-rule="evenodd" stroke-width="6" stroke-linejoin="round" opacity="0.812" fill="rgb(116, 105, 162)" d="m198.19109,320.05639l0,-0.19938l69.87502,0l0,0.19938l-69.87502,0z" id="svg_8" />
            <path stroke="rgb(116, 105, 162)" fill-rule="evenodd" stroke-width="6" stroke-linejoin="round" fill="rgb(116, 105, 162)" d="m197.31396,318.89693l0,-0.19938l69.87502,0l0,0.19938l-69.87502,0z" id="svg_9" />
            <path stroke="null" fill-rule="evenodd" opacity="0.58" fill="rgb(76, 68, 109)" d="m186.17906,358.27478l39.55508,0c2.64576,0 4.79067,1.77941 4.79067,3.97432l0,76.82436l-49.13641,0l0,-76.82436c0,-2.19491 2.14491,-3.97432 4.79067,-3.97432z" id="svg_10" />
            <path stroke="null" fill-rule="evenodd" fill="rgb(255, 160, 93)" d="m184.58508,356.87841l39.37488,0c2.6337,0 4.76885,1.79317 4.76885,4.00506l0,78.44558l-48.91257,0l0,-78.44558c0,-2.21189 2.13514,-4.00506 4.76885,-4.00506z" id="svg_11" />
            <path stroke="null" fill-rule="evenodd" opacity="0.58" fill="rgb(76, 68, 109)" d="m240.86784,358.27478l38.47393,0c2.57344,0 4.65973,1.77941 4.65973,3.97432l0,76.82436l-47.79338,0l0,-76.82436c0,-2.19491 2.08629,-3.97432 4.65973,-3.97432z" id="svg_12" />
            <path stroke="null" fill-rule="evenodd" fill="rgb(255, 160, 93)" d="m240.00515,356.87841l37.57297,0c2.51318,0 4.55061,1.79317 4.55061,4.00506l0,78.44557l-46.67419,0l0,-78.44557c0,-2.21189 2.03743,-4.00506 4.55061,-4.00506z" id="svg_13" />
        </g>
        <text xml:space="preserve" text-anchor="start" font-family="simhei" font-size="72" stroke-width="0" id="svg_15" y="86.48507" x="14.79244" stroke="null" fill="#ffffff">库存管理系统</text>
        <text xml:space="preserve" text-anchor="start" font-family="simhei" font-size="24" stroke-width="0" id="svg_16" y="148.74922" x="212.90565" stroke="null" fill="#ffffff">for</text>
        <text xml:space="preserve" text-anchor="start" font-family="simhei" font-size="102" stroke-width="0" id="svg_17" y="248.74922" x="120.45282" stroke="null" fill="#ffffff">.NET</text>
    </g>
</svg>